<svg width="64" height="64" viewBox="0 0 64 64" fill="none" xmlns="http://www.w3.org/2000/svg">
<g id="Calc">
<path id="Box" fill-rule="evenodd" clip-rule="evenodd" d="M10 14C10 11.7909 11.7909 10 14 10H50C52.2091 10 54 11.7909 54 14V50C54 52.2091 52.2091 54 50 54H14C11.7909 54 10 52.2091 10 50V14Z" stroke="#34C67E" stroke-width="2" stroke-linecap="round" stroke-linejoin="round"/>
<path id="Box_2" fill-rule="evenodd" clip-rule="evenodd" d="M30 40C30 34.4772 34.4772 30 40 30C45.5228 30 50 34.4772 50 40C50 45.5228 45.5228 50 40 50C34.4772 50 30 45.5228 30 40Z" fill="#F4F6F8"/>
<path id="Line" d="M36 37H44" stroke="#34C67E" stroke-width="2" stroke-linecap="round" stroke-linejoin="round"/>
<path id="Line_2" d="M36 43H44" stroke="#34C67E" stroke-width="2" stroke-linecap="round" stroke-linejoin="round"/>
<path id="Box_3" fill-rule="evenodd" clip-rule="evenodd" d="M14 24C14 18.4772 18.4772 14 24 14C29.5228 14 34 18.4772 34 24C34 29.5228 29.5228 34 24 34C18.4772 34 14 29.5228 14 24Z" fill="#F4F6F8"/>
<path id="Line_3" d="M18 24H30" stroke="#34C67E" stroke-width="2" stroke-linecap="round" stroke-linejoin="round"/>
<path id="Line_4" d="M24 18V30" stroke="#34C67E" stroke-width="2" stroke-linecap="round" stroke-linejoin="round"/>
</g>
</svg>
