<svg width="64" height="64" viewBox="0 0 64 64" fill="none" xmlns="http://www.w3.org/2000/svg">
<g id="Calendar">
<path id="Line" d="M50 10H52C54.2091 10 56 11.7909 56 14V54C56 56.2091 54.2091 58 52 58H12C9.79086 58 8 56.2091 8 54V14C8 11.7909 9.79086 10 12 10H14" stroke="#34C67E" stroke-width="2" stroke-linecap="round" stroke-linejoin="round"/>
<path id="Line_2" d="M8 22H56" stroke="#34C67E" stroke-width="2" stroke-linecap="round" stroke-linejoin="round"/>
<path id="Line_3" d="M44 6V14" stroke="#34C67E" stroke-width="2" stroke-linecap="round" stroke-linejoin="round"/>
<path id="Line_4" d="M26 10H38" stroke="#34C67E" stroke-width="2" stroke-linecap="round" stroke-linejoin="round"/>
<path id="Line_5" d="M20 6V14" stroke="#34C67E" stroke-width="2" stroke-linecap="round" stroke-linejoin="round"/>
<path id="Box" fill-rule="evenodd" clip-rule="evenodd" d="M20 40C20 33.3726 25.3726 28 32 28C38.6274 28 44 33.3726 44 40C44 46.6274 38.6274 52 32 52C25.3726 52 20 46.6274 20 40Z" fill="#F4F6F8"/>
<path id="Line_6" d="M26 40.5L30.5 45L38 36" stroke="#34C67E" stroke-width="2" stroke-linecap="round" stroke-linejoin="round"/>
</g>
</svg>
