<svg width="48" height="48" viewBox="0 0 48 48" fill="none" xmlns="http://www.w3.org/2000/svg">
<g id="Phone">
<path id="Box" fill-rule="evenodd" clip-rule="evenodd" d="M21.5 4.5C22.5443 4.5 23.5886 5.22701 24.1267 5.66876C24.37 5.86844 24.4738 6.18335 24.4294 6.4949L23.2465 14.7826C23.1059 15.768 22.262 16.5 21.2666 16.5H15.9142C15.649 16.5 15.3964 16.6087 15.2607 16.8365C14.8372 17.5471 14 19.5191 14 24.006C14 28.4943 14.8377 30.4595 15.2611 31.1661C15.3967 31.3924 15.648 31.5 15.9119 31.5H21.3087C22.2866 31.5 23.1212 32.2072 23.2816 33.172L24.4467 40.1794C24.4813 40.3878 24.4497 40.6015 24.3467 40.7858C23.9277 41.5354 22.7139 43.5 21.5 43.5C17 43.5 8 39 8 24C8 9 17 4.5 21.5 4.5Z" stroke="#34C67E" stroke-width="2" stroke-linecap="round" stroke-linejoin="round"/>
<path id="Line" d="M28 22.5L32.5 27L40 18" stroke="#08B0FF" stroke-width="2" stroke-linecap="round" stroke-linejoin="round"/>
</g>
</svg>
