<svg width="64" height="64" viewBox="0 0 64 64" fill="none" xmlns="http://www.w3.org/2000/svg">
<g id="Document">
<path id="Box" fill-rule="evenodd" clip-rule="evenodd" d="M10 10C10 7.79086 11.7909 6 14 6H42L54 18V54C54 56.2091 52.2091 58 50 58H14C11.7909 58 10 56.2091 10 54V10Z" stroke="#34C67E" stroke-width="2" stroke-linecap="round" stroke-linejoin="round"/>
<path id="Path" d="M42 6V18H54" stroke="#34C67E" stroke-width="2" stroke-linecap="round" stroke-linejoin="round"/>
<path id="Box_2" fill-rule="evenodd" clip-rule="evenodd" d="M20 36C20 29.3726 25.3726 24 32 24C38.6274 24 44 29.3726 44 36C44 42.6274 38.6274 48 32 48C25.3726 48 20 42.6274 20 36Z" fill="#F4F6F8"/>
<path id="Line" d="M26 36H38" stroke="#34C67E" stroke-width="2" stroke-linecap="round" stroke-linejoin="round"/>
<path id="Line_2" d="M32 30V42" stroke="#34C67E" stroke-width="2" stroke-linecap="round" stroke-linejoin="round"/>
</g>
</svg>
