<svg width="48" height="48" viewBox="0 0 48 48" fill="none" xmlns="http://www.w3.org/2000/svg">
<g id="WhatsApp">
<rect id="Box" x="0.5" y="0.5" width="47" height="47" rx="11.5" stroke="#E4E6E8" stroke-linecap="round" stroke-linejoin="round"/>
<g id="Digital_Glyph_Green 2">
<g id="Digital_Glyph_Green">
<path id="Shape" fill-rule="evenodd" clip-rule="evenodd" d="M35.3374 12.6501C32.3297 9.65292 28.3294 8.00152 24.0672 8C15.2845 8 8.13675 15.1127 8.1337 23.8555C8.13217 26.6504 8.86635 29.3784 10.2606 31.7826L8 40L16.4465 37.7951C18.7736 39.0588 21.394 39.724 24.0604 39.7248H24.0672C32.8484 39.7248 39.997 32.6113 40 23.8685C40.0015 19.6313 38.346 15.648 35.3374 12.6508V12.6501ZM24.0672 37.047H24.0619C21.6859 37.0462 19.355 36.4106 17.3213 35.21L16.8377 34.9242L11.8252 36.2327L13.163 31.3689L12.8482 30.8702C11.5227 28.7717 10.8221 26.3463 10.8237 23.8563C10.8267 16.59 16.7674 10.6778 24.0726 10.6778C27.6098 10.6793 30.9347 12.0517 33.4351 14.5432C35.9356 17.034 37.3116 20.346 37.31 23.867C37.3069 31.134 31.3663 37.0462 24.0672 37.0462V37.047ZM31.3311 27.1766C30.9331 26.9782 28.9758 26.0201 28.6106 25.8879C28.2454 25.7555 27.9804 25.6895 27.7152 26.0863C27.4501 26.4832 26.6869 27.3758 26.4547 27.6396C26.2224 27.9042 25.9901 27.9369 25.5921 27.7384C25.1941 27.54 23.9114 27.1218 22.3903 25.7723C21.2069 24.7215 20.4077 23.4245 20.1756 23.0275C19.9433 22.6307 20.1511 22.4163 20.3497 22.2193C20.5284 22.0414 20.7477 21.7563 20.9471 21.5252C21.1466 21.294 21.2123 21.1283 21.3452 20.8645C21.4781 20.5999 21.4116 20.3688 21.3124 20.1703C21.213 19.9719 20.417 18.0216 20.0846 17.2287C19.7614 16.4562 19.433 16.5611 19.1892 16.5482C18.957 16.5368 18.6919 16.5345 18.426 16.5345C18.1602 16.5345 17.7292 16.6333 17.3641 17.0302C16.9989 17.4271 15.9706 18.3858 15.9706 20.3353C15.9706 22.2847 17.397 24.1696 17.5964 24.4342C17.7957 24.6988 20.4039 28.7003 24.3972 30.4171C25.3469 30.8253 26.0887 31.0694 26.667 31.2519C27.6205 31.5537 28.4884 31.5112 29.1744 31.4092C29.9392 31.2952 31.5298 30.4505 31.8613 29.5252C32.1929 28.5999 32.1929 27.8061 32.0936 27.6411C31.9943 27.4761 31.7284 27.3765 31.3304 27.1781L31.3311 27.1766Z" fill="#34C67E"/>
</g>
</g>
</g>
</svg>
